<svg width="13" height="12" viewBox="0 0 13 12" fill="none" xmlns="http://www.w3.org/2000/svg">
<path d="M12.5052 4.32797L8.76565 3.66018L7.0294 0.187695C6.89584 0.0541382 6.76229 0.0541382 6.49517 0.0541382L6.36161 0.187695L4.62537 3.66018L0.885767 4.32797C0.75221 4.32797 0.618652 4.46153 0.618652 4.72864C0.618652 4.8622 0.618652 4.8622 0.75221 4.99576L3.55691 7.6669L2.75557 11.4065C2.75557 11.5401 2.88913 11.8072 3.02268 11.8072C3.15624 11.8072 3.15624 11.8072 3.2898 11.8072L6.76229 10.0709L10.1012 11.6736C10.2348 11.8072 10.5019 11.6736 10.5019 11.5401V11.4065L9.96766 7.53334L12.7724 4.8622C12.9059 4.72864 12.9059 4.59508 12.7724 4.46153C12.6388 4.32797 12.6388 4.32797 12.5052 4.32797Z" fill="#FFC014"/>
</svg>
